<svg width="54" height="29" viewBox="0 0 54 29" fill="none" xmlns="http://www.w3.org/2000/svg">
<path d="M1.68482 23.2286C1.44338 22.8098 1.12148 22.1407 0.922648 21.6453C-0.237176 18.7443 -0.28925 15.7411 0.685949 12.8605C1.76056 9.69901 3.81511 7.2832 6.47087 6.0472C9.80832 4.49965 13.4961 4.80099 16.6963 6.84907C18.7271 8.1055 20.1663 10.0463 21.2598 12.7941C21.3971 13.1465 21.5202 13.5194 21.6433 13.8411L1.68482 23.2286ZM8.35026 10.7103C5.97854 11.8084 4.75717 14.2089 5.01281 17.018L15.0488 12.3549C13.3209 10.1689 11.077 9.44364 8.35026 10.7103V10.7103ZM16.2986 20.8536C16.2939 20.8536 16.2939 20.8588 16.2939 20.8588L16.0856 20.7055C15.4844 21.7526 14.5518 22.6055 13.373 23.1571C11.1291 24.2092 9.05089 23.9385 7.55495 22.5238L7.41766 22.7485C7.41766 22.7485 7.41766 22.7434 7.41293 22.7434L4.86605 26.8549C5.5004 27.3299 6.17736 27.7283 6.88746 28.05C9.69944 29.3116 12.5777 29.2503 15.4134 27.9223C17.4632 26.9621 19.0727 25.5014 20.171 23.6474L16.2986 20.8536ZM28.6164 0V22.8507L31.9113 24.2909L30.0413 29L26.4056 27.3656C25.5914 26.9826 25.0328 26.4003 24.6162 25.7415C24.2138 25.0724 23.9156 24.1479 23.9156 22.9119V0H28.6164ZM37.147 17.0333C37.147 15.0874 37.9471 13.3406 39.2063 12.1557L35.8263 8.09017C33.535 10.2762 32.0912 13.4683 32.0912 17.0231C32.0864 20.583 33.5303 23.7802 35.8168 25.9662L39.1921 21.9007C37.9376 20.7106 37.147 18.9741 37.147 17.0333V17.0333ZM43.1497 23.5146C42.487 23.5146 41.8431 23.392 41.2467 23.1775L39.6324 28.3514C40.7354 28.7497 41.9142 28.9694 43.145 28.9694C48.4944 28.9745 52.9585 24.8783 53.9953 19.4389L49.0341 18.3459C48.4707 21.3031 46.0517 23.5197 43.1497 23.5146V23.5146ZM43.1639 5.09722C41.9378 5.09722 40.7591 5.31173 39.656 5.705L41.2561 10.8839C41.8573 10.6694 42.4964 10.552 43.1592 10.552C46.0659 10.5571 48.4896 12.7839 49.0388 15.7462L54 14.6634C52.9822 9.21381 48.5181 5.10232 43.1639 5.09722V5.09722Z" fill="white"/>
</svg>
